<?xml version="1.0" encoding="utf-8"?>
<!-- Generator: Adobe Illustrator 18.0.0, SVG Export Plug-In . SVG Version: 6.00 Build 0)  -->
<!DOCTYPE svg PUBLIC "-//W3C//DTD SVG 1.1//EN" "http://www.w3.org/Graphics/SVG/1.1/DTD/svg11.dtd">
<svg version="1.1" id="Слой_1" xmlns="http://www.w3.org/2000/svg" xmlns:xlink="http://www.w3.org/1999/xlink" x="0px" y="0px"
	 viewBox="239.3 190 22 20" enable-background="new 239.3 190 22 20" xml:space="preserve">
<path fill="#1A1A1A" d="M245.6,207.1c1.1-0.3,2.6-0.6,4.6-0.6l0.1,0h0l0.1,0c2,0,3.5,0.3,4.6,0.6c1,0.3,1.5,1.1,0.2,1.1
	c-2.9,0-3.5,0-4.8,0c0,0-0.1,0-0.1,0h0c0,0-0.1,0-0.1,0c-1.3,0-1.9,0-4.8,0C244.1,208.2,244.6,207.4,245.6,207.1L245.6,207.1z
	 M250.1,199.8c-4.5-11.4-17.1,0.4-7.1,7.3c0.5-0.2,0.8,0.1,1,0.8h0c-0.3-1.5,3-2.3,6.2-2.3c3.2,0,6.5,0.8,6.2,2.3h0
	c0.2-0.6,0.5-1,1-0.8c10-6.8-2.5-18.7-7.1-7.3l-0.2,0.4L250.1,199.8L250.1,199.8z M250.8,194.1c0.9,0.1,1.6,0.6,2.1,1.2
	c-1.1,0.8-1.9,1.8-2.4,3.1c-0.1,0.2-0.1,0.4-0.2,0.6c-0.1-0.2-0.1-0.4-0.2-0.6c-0.5-1.3-1.4-2.3-2.4-3.1c0.5-0.7,1.3-1.1,2.1-1.2
	v-1.6h-1.4v-1h1.4V190h1v1.4h1.4v1h-1.4V194.1L250.8,194.1z M243.8,208.6c4.3,0,8.7,0,13,0c0.4,0,0.7,0.3,0.7,0.7l0,0
	c0,0.4-0.3,0.7-0.7,0.7h-13c-0.4,0-0.7-0.3-0.7-0.7l0,0C243.1,208.9,243.4,208.6,243.8,208.6z"/>
</svg>
