<?xml version="1.0" encoding="utf-8"?>
<!-- Generator: Adobe Illustrator 18.0.0, SVG Export Plug-In . SVG Version: 6.00 Build 0)  -->
<!DOCTYPE svg PUBLIC "-//W3C//DTD SVG 1.1//EN" "http://www.w3.org/Graphics/SVG/1.1/DTD/svg11.dtd">
<svg version="1.1" id="Слой_1" xmlns="http://www.w3.org/2000/svg" xmlns:xlink="http://www.w3.org/1999/xlink" x="0px" y="0px"
	 viewBox="992.5 39 15 22" enable-background="new 992.5 39 15 22" xml:space="preserve">
<path fill="#1A1A1A" d="M1007.2,39c-1,0-2.8,0.1-4.5,0.6l0,0c-1,0.2-1.9,0.7-2.8,1.1c-4.3,2.2-6.9,5.7-7.3,10.5
	c-0.1,1.4,0,2.8,0.5,4.1c0,0.1,0.3,0.3,0.3,0l0,0c0.7-2.3,1.5-4.6,2.8-6.6c1.6-2.6,3.6-4.7,6.2-6.4c0.5-0.3,1-0.6,1.5-0.8l0,0
	c0,0,0,0.1,0,0.1l0,0c-1.4,0.9-2.5,1.9-3.6,3.1c-1.8,2-3.1,4.3-4.2,6.8c-1.3,2.9-2.2,6-2.6,9.3l0,0c0,0.1,0.2,0.2,0.3,0.1l2.1-3.8
	c0,0,0-0.1,0.1-0.1c0,0,0.1-0.1,0.2-0.1c1-0.6,2.1-1.2,3.1-1.9c1.3-0.9,2.5-2,3.5-3.2c0.1-0.1,1.2-1.4,2.2-3.8c0,0,0-0.1,0-0.1
	c0,0,0,0,0,0c0.2-0.6,0.5-1.2,0.7-2l-2.9,0.1c0,0,3.1-1,3.4-2.1c0,0,0-0.1,0-0.2c0.1-0.6,0.3-1.3,0.4-1.8l0,0c0-0.2,0.4-1.5,1-2.3
	C1007.6,39.3,1007.4,39,1007.2,39z"/>
</svg>
